<?xml version="1.0" encoding="utf-8"?>
<!-- Generator: Adobe Illustrator 26.3.1, SVG Export Plug-In . SVG Version: 6.00 Build 0)  -->
<svg version="1.1" id="Layer_1" xmlns="http://www.w3.org/2000/svg" xmlns:xlink="http://www.w3.org/1999/xlink" x="0px" y="0px"
	 viewBox="0 0 156 27.9" style="enable-background:new 0 0 156 27.9;" xml:space="preserve">
<style type="text/css">
	.st0{fill:#FFFFFF;}
</style>
<g>
	<g>
		<g>
			<path class="st0" d="M50.7,10.8c-0.4,0.6-0.9,1.1-1.6,1.4c-0.7,0.3-1.5,0.5-2.4,0.5h-2.4v3.5h-2.1V4.7h4.5c0.9,0,1.7,0.2,2.4,0.5
				c0.7,0.3,1.2,0.8,1.6,1.4c0.4,0.6,0.5,1.3,0.5,2.1C51.3,9.5,51.1,10.2,50.7,10.8z M48.9,7.5c-0.2-0.3-0.5-0.5-1-0.7
				c-0.5-0.1-1.1-0.2-2-0.2h-1.5v4.1h1.5c0.9,0,1.5-0.1,2-0.2c0.5-0.1,0.8-0.4,1-0.7c0.2-0.3,0.3-0.7,0.3-1.2
				C49.2,8.2,49.1,7.8,48.9,7.5z"/>
			<path class="st0" d="M61.9,10.8c-0.4,0.6-0.9,1.1-1.6,1.4c-0.7,0.3-1.5,0.5-2.4,0.5h-2.4v3.5h-2.1V4.7h4.5c0.9,0,1.7,0.2,2.4,0.5
				C61,5.5,61.5,6,61.9,6.6c0.4,0.6,0.5,1.3,0.5,2.1C62.4,9.5,62.2,10.2,61.9,10.8z M60,7.5c-0.2-0.3-0.5-0.5-1-0.7
				c-0.5-0.1-1.1-0.2-2-0.2h-1.5v4.1H57c0.9,0,1.5-0.1,2-0.2c0.5-0.1,0.8-0.4,1-0.7c0.2-0.3,0.3-0.7,0.3-1.2
				C60.3,8.2,60.2,7.8,60,7.5z"/>
			<path class="st0" d="M72.9,11c-0.5,0.6-1.1,1.1-1.9,1.4l-0.1,0l3.4,3.8h-2.9l-2.9-3.5h-1.9v3.5h-2.1V4.7H69
				c0.9,0,1.7,0.2,2.4,0.5C72.1,5.5,72.7,6,73,6.6c0.4,0.6,0.5,1.3,0.5,2.1C73.6,9.6,73.3,10.3,72.9,11z M71.1,7.5
				c-0.2-0.3-0.5-0.5-1-0.7c-0.5-0.1-1.1-0.2-2-0.2h-1.5v4.1h1.5c0.9,0,1.5-0.1,2-0.2c0.5-0.1,0.8-0.4,1-0.7
				c0.2-0.3,0.3-0.7,0.3-1.2C71.4,8.2,71.3,7.8,71.1,7.5z"/>
			<path class="st0" d="M76.1,16.2V4.7H85v1.9h-6.7v7.5H85v2H76.1z M83.4,11.3h-4.2v-2h4.2V11.3z"/>
			<path class="st0" d="M94.9,15.8c-0.8,0.3-1.7,0.5-2.6,0.5c-1.1,0-2.2-0.3-3.1-0.8c-0.9-0.5-1.7-1.2-2.2-2.1
				c-0.6-0.9-0.8-1.9-0.8-3.1c0-1.1,0.3-2.2,0.8-3.1c0.6-0.9,1.3-1.6,2.2-2.1c0.9-0.5,2-0.8,3.1-0.8c0.9,0,1.8,0.2,2.6,0.5
				c0.8,0.3,1.5,0.8,2.1,1.4l-1.5,1.4c-0.4-0.4-0.8-0.8-1.4-1c-0.6-0.3-1.2-0.4-1.8-0.4c-0.8,0-1.4,0.2-2.1,0.5
				c-0.6,0.3-1.1,0.8-1.5,1.4c-0.4,0.6-0.5,1.3-0.5,2.1c0,0.8,0.2,1.5,0.5,2.1c0.4,0.6,0.9,1.1,1.5,1.4c0.6,0.3,1.3,0.5,2.1,0.5
				c0.6,0,1.2-0.1,1.8-0.4c0.6-0.3,1-0.6,1.4-1l1.5,1.4C96.4,15,95.7,15.5,94.9,15.8z"/>
			<path class="st0" d="M99.4,16.2V4.7h2.1v11.5H99.4z"/>
			<path class="st0" d="M113.5,16.2l-4-8.8l-4,8.8h-2.4l5.3-11.5h2.1l5.3,11.5H113.5z"/>
			<path class="st0" d="M121,6.6v9.5h-2.1V6.6h-3.8V4.7h9.7v1.9H121z"/>
			<path class="st0" d="M126.4,16.2V4.7h2.1v11.5H126.4z"/>
			<path class="st0" d="M142.2,13.5c-0.6,0.9-1.3,1.6-2.2,2.1c-0.9,0.5-2,0.8-3.1,0.8c-1.1,0-2.2-0.3-3.1-0.8
				c-0.9-0.5-1.7-1.2-2.2-2.1c-0.6-0.9-0.8-1.9-0.8-3.1c0-1.1,0.3-2.2,0.8-3.1c0.6-0.9,1.3-1.6,2.2-2.1c0.9-0.5,2-0.8,3.1-0.8
				c1.1,0,2.2,0.3,3.1,0.8c0.9,0.5,1.7,1.2,2.2,2.1c0.6,0.9,0.8,1.9,0.8,3.1C143.1,11.6,142.8,12.6,142.2,13.5z M140.4,8.3
				c-0.4-0.6-0.9-1.1-1.5-1.4c-0.6-0.3-1.3-0.5-2.1-0.5c-0.8,0-1.4,0.2-2.1,0.5c-0.6,0.3-1.1,0.8-1.5,1.4c-0.4,0.6-0.5,1.3-0.5,2.1
				c0,0.8,0.2,1.5,0.5,2.1c0.4,0.6,0.9,1.1,1.5,1.4c0.6,0.3,1.3,0.5,2.1,0.5c0.8,0,1.4-0.2,2.1-0.5c0.6-0.3,1.1-0.8,1.5-1.4
				c0.4-0.6,0.5-1.3,0.5-2.1C140.9,9.6,140.8,8.9,140.4,8.3z"/>
			<path class="st0" d="M155.9,16.2h-2.1l-6.4-8.4v8.4h-2.1V4.7h2.2l6.4,8.3V4.7h2.1V16.2z"/>
		</g>
		<polygon class="st0" points="22.5,21.6 28.9,21.6 19.6,6.9 13.2,6.9 0,27.9 6.4,27.9 16.4,12 		"/>
	</g>
	<g>
		<g>
			<path class="st0" d="M103.2,19.6l3.8,8.2h-1l-0.9-2h-3.6l-0.9,2h-1L103.2,19.6z M103.2,21.8l-1.4,3h2.8L103.2,21.8z"/>
			<path class="st0" d="M113.6,20.6c-0.5,0-0.9,0.1-1.3,0.2c-0.4,0.2-0.7,0.4-1,0.7c-0.3,0.3-0.5,0.6-0.7,1
				c-0.2,0.4-0.3,0.8-0.3,1.2c0,0.4,0.1,0.8,0.2,1.2c0.2,0.4,0.4,0.8,0.7,1.1c0.3,0.3,0.7,0.6,1.1,0.7c0.4,0.1,0.8,0.2,1.2,0.2
				c0.4,0,0.7-0.1,1.1-0.2c0.4-0.1,0.7-0.3,0.9-0.5c0.3-0.2,0.5-0.5,0.7-0.8c0.2-0.3,0.2-0.7,0.2-1.1v-1.1h0.9v1.1
				c0,0.6-0.1,1.1-0.3,1.5c-0.2,0.5-0.5,0.8-0.9,1.1c-0.4,0.3-0.8,0.6-1.3,0.7c-0.5,0.2-1,0.3-1.5,0.3c-0.5,0-1-0.1-1.5-0.3
				c-0.5-0.2-1-0.5-1.4-0.9c-0.4-0.5-0.8-0.9-1-1.5c-0.2-0.5-0.3-1.1-0.3-1.6c0-0.5,0.1-1,0.4-1.5c0.2-0.5,0.5-0.9,0.9-1.3
				c0.4-0.4,0.8-0.7,1.3-0.9c0.5-0.2,1.1-0.3,1.7-0.3h2.6v0.9H113.6z"/>
			<path class="st0" d="M120.7,20.6v-0.9h5.7v0.9H120.7z M120.7,24.2v-0.9h5.7v0.9H120.7z M120.7,27.8v-0.9h5.7v0.9H120.7z"/>
			<path class="st0" d="M136.3,27.8l-6.4-6.8v-1.3l5.5,5.9v-5.8h0.9V27.8z"/>
			<path class="st0" d="M143.6,27.8c-0.6,0-1.1-0.1-1.6-0.3c-0.5-0.2-0.9-0.5-1.3-0.9c-0.4-0.4-0.7-0.8-0.9-1.3
				c-0.2-0.5-0.3-1-0.3-1.6c0-0.6,0.1-1.1,0.3-1.6c0.2-0.5,0.5-0.9,0.9-1.3c0.4-0.4,0.8-0.7,1.3-0.9c0.5-0.2,1-0.3,1.6-0.3h1.9v0.9
				h-1.9c-0.4,0-0.8,0.1-1.2,0.2c-0.4,0.2-0.7,0.4-1,0.7c-0.3,0.3-0.5,0.6-0.7,1c-0.2,0.4-0.2,0.8-0.2,1.2c0,0.4,0.1,0.8,0.2,1.2
				s0.4,0.7,0.7,1c0.3,0.3,0.6,0.5,1,0.7c0.4,0.2,0.8,0.2,1.2,0.2h1.9v0.9H143.6z"/>
			<path class="st0" d="M148.5,19.6h1.1l2.7,4l2.5-4h1.1l-5.2,8.1h-1.1l2.1-3.3L148.5,19.6z"/>
		</g>
		<polygon class="st0" points="26.9,0 20.6,0 20.6,0.2 38,27.9 44.4,27.9 		"/>
	</g>
</g>
<g>
</g>
<g>
</g>
<g>
</g>
<g>
</g>
<g>
</g>
<g>
</g>
<g>
</g>
<g>
</g>
<g>
</g>
<g>
</g>
<g>
</g>
<g>
</g>
<g>
</g>
<g>
</g>
<g>
</g>
</svg>
