<?xml version="1.0" encoding="utf-8"?>
<!-- Generator: Adobe Illustrator 26.3.1, SVG Export Plug-In . SVG Version: 6.00 Build 0)  -->
<svg version="1.1" id="Layer_1" xmlns="http://www.w3.org/2000/svg" xmlns:xlink="http://www.w3.org/1999/xlink" x="0px" y="0px"
	 viewBox="0 0 439.9 88" style="enable-background:new 0 0 439.9 88;" xml:space="preserve">
<style type="text/css">
	.st0{fill:#FFA656;}
	.st1{fill:#FFFFFF;}
</style>
<g>
	<path class="st0" d="M414.7,25.9h-6c-1.1,0-1.8-0.8-1.8-1.8c0-0.3,0-0.5,0-0.8l0,0l2.9-8.4l0,0c0-0.3,0-0.5,0-0.5
		c0.3-1.3-0.8-2.1-1.8-2.1h-23.7c-13.9,0-25.2,11.3-25.2,25.2s11.3,25.2,25.2,25.2h6c1.1,0,1.8,0.8,1.8,1.8c0,0.3,0,0.5,0,0.5l0,0
		l-2.9,8.4l0,0c0,0.3,0,0.5,0,0.5c0,1.1,0.8,1.8,1.8,1.8h23.7c13.9,0,25.2-11.3,25.2-25.2C439.9,37.2,428.6,25.9,414.7,25.9z
		 M414.7,62.7h-18.9c-1.1,0-1.8-0.8-1.8-1.8c0-0.3,0-0.5,0-0.8l0,0l0.8-1.8l0,0c0.3-0.8,0.5-1.6,0.5-2.4c0-3.7-3.2-6.8-6.8-6.8h-4.2
		c-6.3,0-11.6-5.3-11.6-11.6s5.3-11.6,11.6-11.6h18.9c1.1,0,1.8,0.8,1.8,1.8c0,0.3,0,0.5,0,0.8l0,0l-0.8,1.8c0,0-0.5,1.6-0.5,2.4
		c0,3.7,3.2,6.8,6.8,6.8h3.9c6.3,0,11.6,5.3,11.6,11.6C426.2,57.4,421,62.7,414.7,62.7z"/>
	<g>
		<path class="st1" d="M0,26.9h9.3c11.5,0,18.1,7.4,18.1,17.1S20,61.1,9.6,61.1H0V26.9z M6.4,32.8v22.4h2.5C16.3,55.2,21,50.4,21,44
			c0-6.6-4-11.2-12.5-11.2H6.4z"/>
		<path class="st1" d="M32.7,26.9H53V33H39.1v7.9H53V47H39.1v8H53v6.1H32.7V26.9z"/>
		<path class="st1" d="M57,55.4l5.8-4.6c1.7,3,4.4,4.6,7.5,4.6c3.4,0,5.2-2.2,5.2-4.6c0-2.9-3.5-3.8-7.1-4.9
			c-4.6-1.5-9.7-3.2-9.7-9.7c0-5.5,4.8-9.8,11.3-9.8c5.5,0,8.7,2.1,11.5,5l-5.2,4c-1.5-2.2-3.5-3.3-6.2-3.3c-3.1,0-4.8,1.7-4.8,3.9
			c0,2.8,3.2,3.6,7,4.8c4.6,1.5,9.9,3.6,9.9,10.1c0,5.4-4.3,10.6-11.8,10.6C64.3,61.6,60.2,58.9,57,55.4z"/>
		<path class="st1" d="M87.8,26.9h6.4v34.2h-6.4V26.9z"/>
		<path class="st1" d="M99.7,44c0-9.7,7.4-17.6,17.5-17.6c7.1,0,12.6,3.6,15.5,8.8l-5.6,3.4c-2.2-4-5.4-5.9-9.9-5.9
			c-6.4,0-11.2,5.2-11.2,11.4c0,6.3,4.8,11.4,11.4,11.4c5.2,0,8.6-2.9,9.9-7.4h-10.9V42h17.7v2.5c0,9.2-6.5,17.1-16.7,17.1
			C106.8,61.6,99.7,53.5,99.7,44z"/>
		<path class="st1" d="M139.6,26.9h7.2l14.8,23.3V26.9h6.4v34.2h-6.8l-15.2-24v24h-6.4V26.9z"/>
		<path class="st1" d="M174.2,26.9h20.3V33h-13.9v7.9h13.9V47h-13.9v8h13.9v6.1h-20.3V26.9z"/>
		<path class="st1" d="M200.4,26.9h9.3c11.5,0,18.1,7.4,18.1,17.1s-7.4,17.1-17.8,17.1h-9.6V26.9z M206.8,32.8v22.4h2.5
			c7.5,0,12.2-4.8,12.2-11.2c0-6.6-4-11.2-12.5-11.2C209,32.8,206.8,32.8,206.8,32.8z"/>
		<path class="st1" d="M246.9,26.9h10.8c7.6,0,11.9,3.2,11.9,9.6c0,3-1.3,5.2-3.7,6.6c3.2,1.5,5,4.1,5,7.9c0,6.7-4.7,10.1-12.3,10.1
			H247L246.9,26.9L246.9,26.9z M253.3,32.8v7.8h4.4c4.1,0,5.5-1.6,5.5-4.1c0-2.6-1.5-3.7-5.5-3.7H253.3z M253.3,46.5v8.8h5.2
			c3.9,0,5.9-1.6,5.9-4.4s-1.4-4.4-6.1-4.4C258.3,46.5,253.3,46.5,253.3,46.5z"/>
		<path class="st1" d="M285.6,44.9l-10.9-18h7l7.1,11.8l7.1-11.8h7l-11,18.1v16.1h-6.4L285.6,44.9L285.6,44.9z"/>
	</g>
	<g>
		<path class="st1" d="M331,88c-0.6,0-1-0.4-1-1V1c0-0.6,0.4-1,1-1s1,0.4,1,1v86C332,87.6,331.5,88,331,88z"/>
	</g>
</g>
</svg>
