<?xml version="1.0" encoding="utf-8"?>
<!-- Generator: Adobe Illustrator 26.3.1, SVG Export Plug-In . SVG Version: 6.00 Build 0)  -->
<svg version="1.1" id="Layer_1" xmlns="http://www.w3.org/2000/svg" xmlns:xlink="http://www.w3.org/1999/xlink" x="0px" y="0px"
	 viewBox="0 0 77.4 71.1" style="enable-background:new 0 0 77.4 71.1;" xml:space="preserve">
<style type="text/css">
	.st0{fill:#FFFFFF;}
</style>
<g id="rmNqnl.tif">
	<g>
		<path class="st0" d="M6.5,53.1c0.1-0.4,0.2-0.8,0.3-1.2c0.5-1.7,1.4-3.1,2.8-4.2c2.2-1.7,4.4-3.4,6.5-5.1
			c3.1-2.5,7.6-2.3,10.6,0.3c1.2,1.1,2.6,2.1,3.9,3.1c0.2,0.1,0.5,0.1,0.7,0c6.8-2.9,12.1-7.6,15.8-13.9c0.8-1.3,1.4-2.7,2.1-4.1
			c0.2-0.4,0.1-0.6-0.1-0.9c-1.1-1.3-2.1-2.6-3.2-4c-2.5-3-2.5-7.4-0.1-10.5c1.7-2.1,3.4-4.3,5-6.4c1.3-1.7,3-2.6,5-3
			c0.1,0,0.3-0.1,0.4-0.1c0.6,0,1.3,0,1.9,0c1.4,0.3,2.8,0.6,3.9,1.6c1.3,1.1,2.7,2.2,3.9,3.4c4.1,4.1,5.4,9.2,4.7,14.9
			c-0.6,4.4-2,8.4-4,12.3C61.1,46,53.1,54.5,43,61c-5.4,3.5-11.2,6-17.7,6.6c-3.9,0.4-7.6-0.3-11-2.4c-2.8-1.8-4.7-4.3-6.7-6.9
			c-0.4-0.6-0.6-1.4-0.9-2.1c-0.1-0.3-0.2-0.6-0.2-0.9C6.5,54.5,6.5,53.8,6.5,53.1z M65.5,20.3c0.1-2.8-0.7-5.4-2.5-7.4
			c-1.2-1.3-2.6-2.5-4-3.7c-1.3-1-3-0.7-4,0.7c-1.6,2-3.1,4.1-4.7,6.1c-1,1.3-1,2.7,0,4c1.5,1.8,2.9,3.6,4.4,5.4
			c0.7,0.9,0.9,1.8,0.4,2.9c-4.5,11-12.1,19-23.2,23.4c-1.3,0.5-2.3,0.4-3.4-0.5c-1.7-1.4-3.5-2.8-5.3-4.3C22,46,20.4,46,19.3,46.9
			c-2.1,1.6-4.2,3.3-6.4,4.9c-1.2,0.9-1.6,2.6-0.7,3.8c1.3,1.6,2.6,3.2,4.2,4.5c2.4,2,5.4,2.4,8.5,2.1c3.6-0.4,7-1.6,10.2-3.2
			c5.6-2.8,10.5-6.5,15-10.8C55,43.7,59,38.7,62,32.9C64,28.9,65.4,24.8,65.5,20.3z"/>
	</g>
</g>
</svg>
