<?xml version="1.0" encoding="utf-8"?>
<!-- Generator: Adobe Illustrator 26.3.1, SVG Export Plug-In . SVG Version: 6.00 Build 0)  -->
<svg version="1.1" id="Layer_1" xmlns="http://www.w3.org/2000/svg" xmlns:xlink="http://www.w3.org/1999/xlink" x="0px" y="0px"
	 viewBox="0 0 77.4 71.1" style="enable-background:new 0 0 77.4 71.1;" xml:space="preserve">
<style type="text/css">
	.st0{fill:#FFFFFF;}
</style>
<g>
	<path class="st0" d="M62.2,71.1c-15.6,0-31.3,0-46.9,0c-0.4-0.1-0.9-0.1-1.3-0.2C5.8,69.6,0,63,0,54.7c0-12.8,0-25.6,0-38.3
		c0-0.9,0-1.8,0.2-2.7C1.5,5.7,8.1,0.1,16.1,0C31.2,0,46.2,0,61.3,0c7.7,0,14.1,5.2,15.8,12.7c0.1,0.6,0.3,1.3,0.4,1.9
		c0,13.9,0,27.8,0,41.7c0,0.2-0.1,0.3-0.1,0.5c-1,6.6-4.7,11-11,13.3C65,70.6,63.6,70.8,62.2,71.1z M71,21.1
		c-0.4,0.3-0.6,0.5-0.8,0.7C63.6,28.4,57,35,50.5,41.5c-6.8,6.8-16.7,6.7-23.5,0c-6.6-6.6-13.2-13.1-19.7-19.7
		c-0.2-0.2-0.4-0.4-0.7-0.7c0,0.3,0,0.5,0,0.7c0,11,0,22,0,33c0,5.5,4.3,9.7,9.8,9.7c15,0,30,0,45,0c0.7,0,1.5-0.1,2.2-0.2
		c4.6-1,7.6-4.9,7.6-9.6c0-10.9,0-21.8,0-32.7C71,21.7,71,21.5,71,21.1z M38.8,6.5c-7.5,0-15,0-22.5,0c-3.9,0-6.8,1.8-8.7,5.3
		c-0.3,0.6-0.3,0.9,0.2,1.4c8,7.9,15.9,15.9,23.9,23.9c4.1,4.1,10,4.1,14.1,0c8-8,16-16,24-24c0.4-0.4,0.5-0.7,0.2-1.2
		c-1.9-3.5-4.8-5.3-8.7-5.4C53.8,6.5,46.3,6.5,38.8,6.5z"/>
</g>
</svg>
