<?xml version="1.0" encoding="utf-8"?>
<!-- Generator: Adobe Illustrator 26.3.1, SVG Export Plug-In . SVG Version: 6.00 Build 0)  -->
<svg version="1.1" id="Layer_1" xmlns="http://www.w3.org/2000/svg" xmlns:xlink="http://www.w3.org/1999/xlink" x="0px" y="0px"
	 viewBox="0 0 77.4 77.3" style="enable-background:new 0 0 77.4 77.3;" xml:space="preserve">
<style type="text/css">
	.st0{fill:#FFFFFF;}
</style>
<g>
	<path class="st0" d="M50.2,77.3c-7.7,0-15.3,0-23,0c-0.5,0-0.9-0.1-1.4-0.1c-2.8-0.3-5.6-0.3-8.4-0.8c-5.7-1.1-10.4-3.9-13.6-9
		c-2.3-3.6-3.2-7.6-3.5-11.8C0.2,53.8,0.1,52,0,50.2c0-7.8,0-15.5,0-23.3c0-0.4,0.1-0.9,0.1-1.3c0.1-3.1,0.2-6.1,0.9-9.1
		C2.6,10.3,6,5.5,11.8,2.6c3.8-1.8,7.9-2.5,12-2.6C33.8,0,43.7,0,53.6,0.1c2.4,0,4.8,0.4,7.2,0.9c6.7,1.5,11.6,5.3,14.3,11.8
		c1.6,3.7,2.1,7.6,2.1,11.5c0.1,8.2,0.1,16.4,0.1,24.6c0,3.7-0.1,7.5-0.9,11.1c-1.2,5.4-3.7,9.9-8.4,13.1c-3.8,2.5-8,3.6-12.5,3.9
		C53.9,77.1,52.1,77.2,50.2,77.3z M6.9,38.5c0,0,0.1,0,0.1,0c0,3.2-0.1,6.5,0,9.7c0.1,3.4,0,6.9,0.7,10.3c1.2,5.9,4.7,9.6,10.6,10.9
		c2.2,0.5,4.5,0.7,6.8,0.7c7.6,0.1,15.3,0.2,22.9,0.1c3.5,0,7.1,0,10.6-0.7c5.9-1.2,9.6-4.6,10.9-10.5c0.5-2.2,0.7-4.5,0.7-6.8
		c0.1-7.9,0.2-15.7,0.1-23.6c0-3.3-0.2-6.7-0.7-10c-0.9-5.5-4.2-9.2-9.6-10.7C57.5,7.2,54.9,7,52.2,7C44.6,6.9,37,6.8,29.4,6.9
		c-3.5,0-7.1,0-10.6,0.7c-4.6,1-8.1,3.3-10,7.7c-0.9,2.1-1.4,4.4-1.5,6.7C7.1,27.5,7,33,6.9,38.5z"/>
	<path class="st0" d="M38.7,58.4c-10.9,0-19.8-8.8-19.9-19.8c-0.1-11,8.8-19.9,19.9-19.9c11,0,19.9,8.9,19.9,19.9
		C58.6,49.6,49.7,58.4,38.7,58.4z M51.6,38.6c0-7.1-5.7-12.9-12.8-12.9c-7.2,0-12.9,5.7-13,12.9c0,7.2,5.7,12.9,12.9,12.9
		C45.9,51.5,51.6,45.7,51.6,38.6z"/>
	<path class="st0" d="M59.4,13.3c2.6,0,4.6,2.1,4.6,4.7c0,2.6-2.1,4.6-4.7,4.5c-2.6,0-4.6-2.1-4.6-4.7
		C54.8,15.3,56.9,13.2,59.4,13.3z"/>
</g>
</svg>
