<?xml version="1.0" encoding="utf-8"?>
<!-- Generator: Adobe Illustrator 26.3.1, SVG Export Plug-In . SVG Version: 6.00 Build 0)  -->
<svg version="1.1" id="Layer_1" xmlns="http://www.w3.org/2000/svg" xmlns:xlink="http://www.w3.org/1999/xlink" x="0px" y="0px"
	 viewBox="0 0 77.4 77" style="enable-background:new 0 0 77.4 77;" xml:space="preserve">
<style type="text/css">
	.st0{fill:#FFFFFF;}
</style>
<g>
	<path class="st0" d="M77.4,36.3c0,1.6,0,3.1,0,4.7c0,0.2-0.1,0.4-0.1,0.6c-0.2,1.6-0.3,3.2-0.7,4.7C73.4,60.5,65,70.1,51.4,75.2
		c-2.1,0.8-4.3,1.2-6.6,1.8c0-9.2,0-18.1,0-27.1c0.3,0,0.6,0,0.9,0c2.5,0,4.9,0,7.4,0c0.5,0,0.7-0.1,0.8-0.7
		c0.2-1.8,0.6-3.7,0.8-5.5c0.2-1.6,0.5-3.3,0.7-5c-3.6,0-7.1,0-10.7,0c0-2.5,0-4.9,0-7.3c0-3.6,2-5.7,5.6-5.9c1.6-0.1,3.3-0.1,4.9,0
		c0.5,0,0.7-0.1,0.6-0.6c0-2.8,0-5.5,0-8.3c0-0.4-0.1-0.6-0.5-0.6c-3.1-0.4-6.3-0.7-9.5-0.6c-7.3,0.3-12.6,5.3-13.1,12.6
		c-0.2,3.3-0.1,6.6-0.2,9.9c0,0.3,0,0.6,0,1c-3.3,0-6.5,0-9.8,0c0,3.7,0,7.4,0,11.2c3.3,0,6.5,0,9.7,0c0,9,0,17.9,0,26.9
		c-0.2,0-0.4,0-0.6-0.1c-5.4-1-10.4-2.9-14.9-6C6.5,63.4,0.7,53.2,0.1,40.3c-0.4-8.3,1.7-16,6.4-22.9C13.5,7,23.4,1.1,36,0.1
		c10-0.8,19,2,26.8,8.3c7.6,6.1,12.3,14,14,23.6C77.1,33.4,77.2,34.9,77.4,36.3z"/>
</g>
</svg>
