<?xml version="1.0" encoding="utf-8"?>
<!-- Generator: Adobe Illustrator 26.3.1, SVG Export Plug-In . SVG Version: 6.00 Build 0)  -->
<svg version="1.1" id="Layer_1" xmlns="http://www.w3.org/2000/svg" xmlns:xlink="http://www.w3.org/1999/xlink" x="0px" y="0px"
	 viewBox="0 0 77.4 71.1" style="enable-background:new 0 0 77.4 71.1;" xml:space="preserve">
<style type="text/css">
	.st0{fill:#FFFFFF;}
</style>
<g>
	<path class="st0" d="M8.7,65.9c4.2,0,8.4,0,12.6,0c0-13.7,0-27.3,0-40.9c-4.2,0-8.4,0-12.6,0C8.7,38.6,8.7,52.2,8.7,65.9z"/>
	<path class="st0" d="M42.1,64.6c0-6.8,0-13.6,0-20.4c0-1.9,0.3-3.8,1.2-5.6c1.3-2.7,3.9-3.8,7.6-3.4c2.5,0.3,4.3,1.8,4.9,4.7
		c0.4,2,0.5,4,0.5,6c0.1,6.3,0,12.6,0,18.9c0,0.4,0,0.8,0,1.1c4.3,0,8.5,0,12.7,0c0-0.2,0-0.4,0-0.6c0-7.9,0-15.8-0.1-23.6
		c0-2.3-0.3-4.6-0.8-6.9c-1-5.1-3.7-8.8-9-10.2c-1.3-0.3-2.6-0.5-3.9-0.6c-5.6-0.5-10.2,1.4-13.4,6.1c-0.1,0.1-0.2,0.2-0.5,0.4
		c0-2,0-3.8,0-5.6c-4.1,0-8.1,0-12.1,0c0,13.7,0,27.3,0,40.9c4.2,0,8.4,0,12.6,0C42.1,65.4,42.1,65,42.1,64.6z"/>
	<path class="st0" d="M15,19.3c4.1,0,7.4-3.4,7.4-7.4c0-4.1-3.3-7.3-7.4-7.3c-4.1,0-7.4,3.3-7.4,7.4C7.6,16,11,19.3,15,19.3z"/>
</g>
</svg>
