<?xml version="1.0" encoding="utf-8"?>
<!-- Generator: Adobe Illustrator 26.3.1, SVG Export Plug-In . SVG Version: 6.00 Build 0)  -->
<svg version="1.1" id="Layer_1" xmlns="http://www.w3.org/2000/svg" xmlns:xlink="http://www.w3.org/1999/xlink" x="0px" y="0px"
	 viewBox="0 0 77.4 70" style="enable-background:new 0 0 77.4 70;" xml:space="preserve">
<style type="text/css">
	.st0{fill:#FFFFFF;}
</style>
<g>
	<path class="st0" d="M77.4,70c-0.5,0-0.8,0-1.1,0c-7.2,0-14.5,0-21.7,0c-0.8,0-1.3-0.2-1.7-0.9C47,61.4,41.1,53.7,35.2,46
		c-0.1-0.1-0.2-0.3-0.4-0.5c-0.2,0.3-0.5,0.5-0.7,0.8C27.4,54,20.6,61.7,13.9,69.4c-0.2,0.3-0.6,0.5-1,0.5c-3.6,0-7.2,0-10.7,0
		c-0.1,0-0.3,0-0.6-0.1C10.8,59.3,20,48.8,29.2,38.3C19.5,25.6,9.8,12.9,0,0c0.5,0,0.7,0,1,0c7.5,0,15,0,22.5,0
		c0.7,0,1.2,0.2,1.6,0.8c5.3,7,10.6,14.1,15.9,21.1c0.1,0.1,0.2,0.2,0.3,0.4c0.2-0.2,0.4-0.4,0.6-0.6c6.2-7.1,12.4-14.1,18.6-21.2
		C60.7,0.3,61.1,0,61.4,0c3.7,0,7.4,0,11,0c0.1,0,0.1,0,0.3,0.1C64.1,10,55.5,19.8,46.9,29.6C57,43,67.2,56.4,77.4,70z M13.9,6.7
		c0.2,0.3,0.4,0.5,0.5,0.7c5.8,7.5,33.8,44.2,42,54.9c0.3,0.4,0.6,0.6,1.1,0.6c1.7,0,3.3,0,5,0c0.2,0,0.5,0,0.8-0.1
		c-0.2-0.3-0.3-0.5-0.5-0.7C53.9,50.4,26.3,13.9,21.4,7.3c-0.2-0.3-0.5-0.6-0.8-0.6C18.4,6.7,16.2,6.7,13.9,6.7z"/>
</g>
</svg>
