<?xml version="1.0" encoding="utf-8"?>
<!-- Generator: Adobe Illustrator 26.3.1, SVG Export Plug-In . SVG Version: 6.00 Build 0)  -->
<svg version="1.1" id="Layer_1" xmlns="http://www.w3.org/2000/svg" xmlns:xlink="http://www.w3.org/1999/xlink" x="0px" y="0px"
	 viewBox="0 0 77.1 77.4" style="enable-background:new 0 0 77.1 77.4;" xml:space="preserve">
<style type="text/css">
	.st0{fill:#FFFFFF;}
</style>
<g>
	<path class="st0" d="M0.3,77.4c-0.1,0-0.2,0-0.3,0c0,0,0.1-0.1,0.1-0.1C1.8,70.9,3.6,64.4,5.3,58c0.1-0.3,0-0.7-0.2-1
		c-4.6-8.4-5.9-17.3-4-26.7C4.7,13.4,20,0.5,37.3,0C47.2-0.3,56,2.7,63.6,9.1c7.3,6.3,11.7,14.2,13.1,23.8c0.2,1.2,0.3,2.4,0.4,3.7
		c0,1.2,0,2.3,0,3.5c0,0.3-0.1,0.5-0.1,0.8c-0.2,1.7-0.3,3.5-0.7,5.2c-5.2,25.1-32.7,38.1-55.4,26.3c-0.3-0.2-0.7-0.2-1.1-0.1
		c-4.2,1.1-8.5,2.2-12.7,3.3C4.8,76.2,2.6,76.8,0.3,77.4z M9.3,68.3c0.3-0.1,0.5-0.1,0.7-0.1c3.5-0.9,6.9-1.8,10.4-2.7
		c0.7-0.2,1.3-0.1,1.9,0.3c8.7,5.1,17.9,6.1,27.4,2.7c15.1-5.5,23.6-21.1,20.2-36.9c-3.5-16.3-19.6-27.3-36-24.6
		c-7.8,1.3-14.3,4.9-19.4,10.9c-6.2,7.4-8.6,15.9-7.2,25.5c0.7,4.6,2.3,8.8,4.9,12.7c0.3,0.4,0.3,0.8,0.2,1.3
		c-0.3,0.9-0.5,1.7-0.7,2.6C10.8,62.6,10.1,65.4,9.3,68.3z"/>
	<path class="st0" d="M26.4,20.7c1.7-0.4,2.4,0.7,3,2.2c0.9,2.2,1.8,4.4,2.7,6.6c0.3,0.7,0.3,1.3-0.1,1.9c-0.8,1.1-1.5,2.1-2.4,3.1
		c-0.7,0.8-0.7,1.2-0.2,2.1c3.1,5.3,7.5,9,13.2,11.3c0.9,0.3,1.3,0.3,1.9-0.5c1-1.2,1.9-2.4,2.9-3.6c0.6-0.8,1.1-1,2-0.6
		c2.7,1.2,5.4,2.5,8.1,3.9c0.3,0.2,0.6,0.8,0.6,1.2c0,2.7-0.8,5.1-3.2,6.7c-3.2,2.1-6.6,2.3-10.3,1.2c-9.1-2.6-15.8-8.4-21.2-16
		c-1.6-2.3-3.1-4.7-3.8-7.5c-1-4.2,0-7.9,3.1-11C23.7,20.7,24.9,20.5,26.4,20.7z"/>
</g>
</svg>
